<svg xmlns="http://www.w3.org/2000/svg" width="21.349" height="16.211" viewBox="0 0 21.349 16.211"><defs><style>.a,.b{fill:none;}.a{fill-rule:evenodd;}.b{stroke:#3ec6ff;}.c,.d{stroke:none;}.d{fill:#3ec6ff;}</style></defs><g transform="translate(-551.5 -208.5)"><g class="a" transform="translate(553.911 210.815)"><path class="c" d="M2.487,4.594a1.927,1.927,0,0,0,1.9-1.954A1.927,1.927,0,0,0,2.487.685a1.927,1.927,0,0,0-1.9,1.954A1.927,1.927,0,0,0,2.487,4.594Z"/><path class="d" d="M 2.487470865249634 3.593501329421997 C 2.982790946960449 3.593501329421997 3.385770797729492 3.165491342544556 3.385770797729492 2.639401435852051 C 3.385770797729492 2.113311529159546 2.982790946960449 1.685301423072815 2.487470865249634 1.685301423072815 C 1.992150902748108 1.685301423072815 1.589170813560486 2.113311529159546 1.589170813560486 2.639401435852051 C 1.589170813560486 3.165491342544556 1.992150902748108 3.593501329421997 2.487470865249634 3.593501329421997 M 2.487470865249634 4.593501567840576 C 1.439070820808411 4.593501567840576 0.5891708731651306 3.71860146522522 0.5891708731651306 2.639401435852051 C 0.5891708731651306 1.560201406478882 1.439070820808411 0.6853014230728149 2.487470865249634 0.6853014230728149 C 3.535870790481567 0.6853014230728149 4.385770797729492 1.560201406478882 4.385770797729492 2.639401435852051 C 4.385770797729492 3.71860146522522 3.535870790481567 4.593501567840576 2.487470865249634 4.593501567840576 Z"/></g><path class="b" d="M.6,11.928,6.886,2.809l2.6,3.612L12.83,1.008,16.993,7.24" transform="translate(555.44 212.5)"/><g class="a" transform="translate(550.44 207.5)"><path class="c" d="M21.993,1.744A.733.733,0,0,0,21.271,1H1.781a.733.733,0,0,0-.722.744v14.44a.733.733,0,0,0,.722.744h19.49a.733.733,0,0,0,.722-.744V1.744Z"/><path class="d" d="M 2.059564590454102 2.000120162963867 L 2.059564590454102 15.9276008605957 L 20.99270629882812 15.9276008605957 L 20.99279403686523 2.000120162963867 L 2.059564590454102 2.000120162963867 M 1.781074523925781 1.000120162963867 L 21.27129554748535 1.000120162963867 C 21.66979598999023 1.000120162963867 21.99279403686523 1.333009719848633 21.99279403686523 1.743650436401367 L 21.99270439147949 1.743650436401367 L 21.99270439147949 16.18410110473633 C 21.99270439147949 16.59480094909668 21.66970443725586 16.9276008605957 21.27119445800781 16.9276008605957 L 1.781074523925781 16.9276008605957 C 1.382564544677734 16.9276008605957 1.059564590454102 16.59480094909668 1.059564590454102 16.18410110473633 L 1.059564590454102 1.743650436401367 C 1.059564590454102 1.333009719848633 1.382564544677734 1.000120162963867 1.781074523925781 1.000120162963867 Z"/></g></g></svg>