<svg xmlns="http://www.w3.org/2000/svg" width="24" height="24" viewBox="0 0 24 24"><defs><style>.a{fill:#3ec6ff;fill-rule:evenodd;}.b{fill:none;stroke:#fff;}</style></defs><g transform="translate(-560.5 -269.5)"><path class="a" d="M12,24A12,12,0,1,0,0,12,12,12,0,0,0,12,24Z" transform="translate(560.5 269.5)"/><path class="b" d="M15,15v-.836a.567.567,0,0,0-.319-.528c-2.254-.978-4.756-2.192-4.966-2.949V9.894a5.222,5.222,0,0,0,1.055-2.162,1.389,1.389,0,0,0,.221-1.865V4.09C10.99,2.255,10.08,1,8,1A2.768,2.768,0,0,0,5.009,4.09V5.867A1.39,1.39,0,0,0,5.23,7.731,5.222,5.222,0,0,0,6.285,9.894v.794c-.209.755-2.712,1.97-4.966,2.948A.569.569,0,0,0,1,14.163V15" transform="translate(564.5 273.5)"/></g></svg>